G04 Layer_Color=32896*
%FSLAX24Y24*%
%MOIN*%
G70*
G01*
G75*
%ADD10C,0.0100*%
%ADD14C,0.0200*%
%ADD15C,0.0080*%
D10*
X28250Y21250D02*
X28350Y21350D01*
X28550D01*
X28650Y21250D01*
Y21150D01*
X28550Y21050D01*
X28350D01*
X28250Y20950D01*
Y20850D01*
X28350Y20750D01*
X28550D01*
X28650Y20850D01*
X28050Y20750D02*
X27850D01*
X27950D01*
Y21350D01*
X28050Y21250D01*
X26700Y29000D02*
Y29600D01*
X26400D01*
X26300Y29500D01*
Y29300D01*
X26400Y29200D01*
X26700D01*
X26500D02*
X26300Y29000D01*
X26100Y29600D02*
X25900D01*
X26000D01*
Y29000D01*
X26100D01*
X25900D01*
X25200Y29500D02*
X25300Y29600D01*
X25500D01*
X25600Y29500D01*
Y29100D01*
X25500Y29000D01*
X25300D01*
X25200Y29100D01*
Y29300D01*
X25400D01*
X25001Y29600D02*
Y29000D01*
Y29300D01*
X24601D01*
Y29600D01*
Y29000D01*
X24401Y29600D02*
X24001D01*
X24201D01*
Y29000D01*
X23201D02*
Y29600D01*
X22901D01*
X22801Y29500D01*
Y29300D01*
X22901Y29200D01*
X23201D01*
X22601Y29000D02*
Y29400D01*
X22401Y29600D01*
X22201Y29400D01*
Y29000D01*
Y29300D01*
X22601D01*
X22002Y29000D02*
Y29600D01*
X21602Y29000D01*
Y29600D01*
X21002D02*
X21402D01*
Y29000D01*
X21002D01*
X21402Y29300D02*
X21202D01*
X20802Y29600D02*
Y29000D01*
X20402D01*
X34600Y28900D02*
X34800D01*
X34700D01*
Y28400D01*
X34800Y28300D01*
X34900D01*
X35000Y28400D01*
X34400Y28300D02*
X34200D01*
X34300D01*
Y28900D01*
X34400Y28800D01*
X34600Y26450D02*
X34800D01*
X34700D01*
Y25950D01*
X34800Y25850D01*
X34900D01*
X35000Y25950D01*
X34000Y25850D02*
X34400D01*
X34000Y26250D01*
Y26350D01*
X34100Y26450D01*
X34300D01*
X34400Y26350D01*
X34600Y23900D02*
X34800D01*
X34700D01*
Y23400D01*
X34800Y23300D01*
X34900D01*
X35000Y23400D01*
X34400Y23800D02*
X34300Y23900D01*
X34100D01*
X34000Y23800D01*
Y23700D01*
X34100Y23600D01*
X34200D01*
X34100D01*
X34000Y23500D01*
Y23400D01*
X34100Y23300D01*
X34300D01*
X34400Y23400D01*
X40850Y21250D02*
X40950Y21350D01*
X41150D01*
X41250Y21250D01*
Y21150D01*
X41150Y21050D01*
X40950D01*
X40850Y20950D01*
Y20850D01*
X40950Y20750D01*
X41150D01*
X41250Y20850D01*
X40250Y20750D02*
X40650D01*
X40250Y21150D01*
Y21250D01*
X40350Y21350D01*
X40550D01*
X40650Y21250D01*
X53350D02*
X53450Y21350D01*
X53650D01*
X53750Y21250D01*
Y21150D01*
X53650Y21050D01*
X53450D01*
X53350Y20950D01*
Y20850D01*
X53450Y20750D01*
X53650D01*
X53750Y20850D01*
X53150Y21250D02*
X53050Y21350D01*
X52850D01*
X52750Y21250D01*
Y21150D01*
X52850Y21050D01*
X52950D01*
X52850D01*
X52750Y20950D01*
Y20850D01*
X52850Y20750D01*
X53050D01*
X53150Y20850D01*
D14*
X32600Y22500D02*
G03*
X32600Y22500I-100J0D01*
G01*
Y25000D02*
G03*
X32600Y25000I-100J0D01*
G01*
Y27500D02*
G03*
X32600Y27500I-100J0D01*
G01*
D15*
X55750Y25800D02*
Y26700D01*
Y23300D02*
Y24200D01*
X50750Y23300D02*
Y24200D01*
Y25800D02*
Y26700D01*
Y21700D02*
X55750D01*
X50750Y28300D02*
X55750D01*
X43250Y25800D02*
Y26700D01*
Y23300D02*
Y24200D01*
X38250Y23300D02*
Y24200D01*
Y25800D02*
Y26700D01*
Y21700D02*
X43250D01*
X38250Y28300D02*
X43250D01*
X30750Y25800D02*
Y26700D01*
Y23300D02*
Y24200D01*
X25750Y23300D02*
Y24200D01*
Y25800D02*
Y26700D01*
Y21700D02*
X30750D01*
X25750Y28300D02*
X30750D01*
X33000Y22000D02*
Y23000D01*
Y22000D02*
X36000D01*
Y23000D01*
X33000D02*
X36000D01*
X33000D02*
X35900D01*
X33000Y24500D02*
Y25500D01*
Y24500D02*
X36000D01*
Y25500D01*
X33000D02*
X36000D01*
X33000D02*
X35900D01*
X33000Y27000D02*
Y28000D01*
Y27000D02*
X36000D01*
Y28000D01*
X33000D02*
X36000D01*
X33000D02*
X35900D01*
X57350Y29400D02*
Y29000D01*
Y29200D01*
X57283Y29267D01*
X57150D01*
X57083Y29200D01*
Y29000D01*
X56883Y29333D02*
Y29267D01*
X56950D01*
X56817D01*
X56883D01*
Y29067D01*
X56817Y29000D01*
X56550Y29333D02*
Y29267D01*
X56617D01*
X56484D01*
X56550D01*
Y29067D01*
X56484Y29000D01*
X56284Y28867D02*
Y29267D01*
X56084D01*
X56017Y29200D01*
Y29067D01*
X56084Y29000D01*
X56284D01*
X55884D02*
X55684D01*
X55617Y29067D01*
X55684Y29133D01*
X55817D01*
X55884Y29200D01*
X55817Y29267D01*
X55617D01*
X55484D02*
X55417D01*
Y29200D01*
X55484D01*
Y29267D01*
Y29067D02*
X55417D01*
Y29000D01*
X55484D01*
Y29067D01*
X55151Y29000D02*
X54884Y29267D01*
X54751Y29000D02*
X54484Y29267D01*
X54218Y28867D02*
X54151D01*
X54084Y28933D01*
Y29267D01*
X54284D01*
X54351Y29200D01*
Y29067D01*
X54284Y29000D01*
X54084D01*
X53951D02*
X53818D01*
X53884D01*
Y29267D01*
X53951D01*
X53551Y29333D02*
Y29267D01*
X53618D01*
X53485D01*
X53551D01*
Y29067D01*
X53485Y29000D01*
X53285Y29400D02*
Y29000D01*
Y29200D01*
X53218Y29267D01*
X53085D01*
X53018Y29200D01*
Y29000D01*
X52885Y29267D02*
Y29067D01*
X52818Y29000D01*
X52618D01*
Y29267D01*
X52485Y29400D02*
Y29000D01*
X52285D01*
X52218Y29067D01*
Y29133D01*
Y29200D01*
X52285Y29267D01*
X52485D01*
X52085Y29000D02*
Y29067D01*
X52018D01*
Y29000D01*
X52085D01*
X51485Y29267D02*
X51685D01*
X51752Y29200D01*
Y29067D01*
X51685Y29000D01*
X51485D01*
X51285D02*
X51152D01*
X51085Y29067D01*
Y29200D01*
X51152Y29267D01*
X51285D01*
X51352Y29200D01*
Y29067D01*
X51285Y29000D01*
X50952D02*
Y29267D01*
X50885D01*
X50819Y29200D01*
Y29000D01*
Y29200D01*
X50752Y29267D01*
X50685Y29200D01*
Y29000D01*
X50552D02*
X50286Y29267D01*
X50152Y29000D02*
X49952D01*
X49886Y29067D01*
X49952Y29133D01*
X50086D01*
X50152Y29200D01*
X50086Y29267D01*
X49886D01*
X49752Y29000D02*
X49553D01*
X49486Y29067D01*
X49553Y29133D01*
X49686D01*
X49752Y29200D01*
X49686Y29267D01*
X49486D01*
X49286Y29333D02*
Y29267D01*
X49353D01*
X49219D01*
X49286D01*
Y29067D01*
X49219Y29000D01*
X48953Y29267D02*
X48819D01*
X48753Y29200D01*
Y29000D01*
X48953D01*
X49019Y29067D01*
X48953Y29133D01*
X48753D01*
X48619Y29000D02*
X48486D01*
X48553D01*
Y29400D01*
X48619D01*
X48286Y29000D02*
X48153D01*
X48220D01*
Y29400D01*
X48286D01*
X47953Y29000D02*
X47820D01*
X47886D01*
Y29267D01*
X47953D01*
X47553Y29000D02*
X47420D01*
X47353Y29067D01*
Y29200D01*
X47420Y29267D01*
X47553D01*
X47620Y29200D01*
Y29067D01*
X47553Y29000D01*
X47220D02*
Y29267D01*
X47020D01*
X46953Y29200D01*
Y29000D01*
X46820D02*
X46553Y29267D01*
X46420Y29000D02*
Y29267D01*
X46287Y29400D01*
X46154Y29267D01*
Y29000D01*
Y29200D01*
X46420D01*
X45954Y29333D02*
Y29267D01*
X46020D01*
X45887D01*
X45954D01*
Y29067D01*
X45887Y29000D01*
X45620Y29267D02*
X45487D01*
X45421Y29200D01*
Y29000D01*
X45620D01*
X45687Y29067D01*
X45620Y29133D01*
X45421D01*
X45287Y29267D02*
Y29000D01*
Y29133D01*
X45221Y29200D01*
X45154Y29267D01*
X45087D01*
X44887Y29000D02*
X44754D01*
X44821D01*
Y29267D01*
X44887D01*
X44554Y29000D02*
Y29400D01*
X44354D01*
X44288Y29333D01*
Y29200D01*
X44354Y29133D01*
X44554D01*
X44154Y29000D02*
X44021D01*
X44088D01*
Y29267D01*
X44154D01*
X43621Y29000D02*
X43754D01*
X43821Y29067D01*
Y29200D01*
X43754Y29267D01*
X43621D01*
X43554Y29200D01*
Y29133D01*
X43821D01*
X22950Y20400D02*
Y20800D01*
X22750D01*
X22683Y20733D01*
Y20600D01*
X22750Y20533D01*
X22950D01*
X22817D02*
X22683Y20400D01*
X22284Y20800D02*
X22550D01*
Y20400D01*
X22284D01*
X22550Y20600D02*
X22417D01*
X22150Y20800D02*
Y20533D01*
X22017Y20400D01*
X21884Y20533D01*
Y20800D01*
X21351Y20400D02*
X21217D01*
X21284D01*
Y20800D01*
X21351Y20733D01*
X21017Y20400D02*
Y20467D01*
X20951D01*
Y20400D01*
X21017D01*
X20684D02*
X20551D01*
X20617D01*
Y20800D01*
X20684Y20733D01*
M02*
