G04 Layer_Physical_Order=2*
G04 Layer_Color=16711680*
%FSLAX24Y24*%
%MOIN*%
G70*
G01*
G75*
%ADD10C,0.0100*%
%ADD11O,0.0600X0.1200*%
%ADD12C,0.0600*%
%ADD13C,0.1600*%
G36*
X57750Y20000D02*
X57750Y20000D01*
X20000D01*
Y30000D01*
X57750D01*
Y20000D01*
D02*
G37*
%LPC*%
G36*
X51875Y23203D02*
X51771Y23190D01*
X51673Y23149D01*
X51590Y23085D01*
X51526Y23002D01*
X51485Y22904D01*
X51472Y22800D01*
Y22653D01*
X51153D01*
Y22800D01*
X51140Y22904D01*
X51099Y23002D01*
X51035Y23085D01*
X50952Y23149D01*
X50854Y23190D01*
X50750Y23203D01*
X50646Y23190D01*
X50548Y23149D01*
X50465Y23085D01*
X50401Y23002D01*
X50360Y22904D01*
X50347Y22800D01*
Y22200D01*
X50360Y22096D01*
X50401Y21998D01*
X50465Y21915D01*
X50548Y21851D01*
X50646Y21810D01*
X50750Y21797D01*
X50854Y21810D01*
X50952Y21851D01*
X51035Y21915D01*
X51099Y21998D01*
X51140Y22096D01*
X51153Y22200D01*
Y22347D01*
X51472D01*
Y22200D01*
X51485Y22096D01*
X51526Y21998D01*
X51590Y21915D01*
X51673Y21851D01*
X51771Y21810D01*
X51875Y21797D01*
X51979Y21810D01*
X52077Y21851D01*
X52160Y21915D01*
X52224Y21998D01*
X52265Y22096D01*
X52278Y22200D01*
Y22800D01*
X52265Y22904D01*
X52224Y23002D01*
X52160Y23085D01*
X52077Y23149D01*
X51979Y23190D01*
X51875Y23203D01*
D02*
G37*
G36*
X46950Y25829D02*
X46769Y25812D01*
X46594Y25759D01*
X46434Y25673D01*
X46293Y25557D01*
X46177Y25416D01*
X46091Y25256D01*
X46038Y25081D01*
X46021Y24900D01*
X46038Y24719D01*
X46091Y24544D01*
X46177Y24384D01*
X46293Y24243D01*
X46434Y24127D01*
X46594Y24041D01*
X46769Y23988D01*
X46950Y23971D01*
X47131Y23988D01*
X47306Y24041D01*
X47466Y24127D01*
X47607Y24243D01*
X47723Y24384D01*
X47809Y24544D01*
X47862Y24719D01*
X47879Y24900D01*
X47862Y25081D01*
X47809Y25256D01*
X47723Y25416D01*
X47607Y25557D01*
X47466Y25673D01*
X47306Y25759D01*
X47131Y25812D01*
X46950Y25829D01*
D02*
G37*
G36*
X30750Y23203D02*
X30646Y23190D01*
X30548Y23149D01*
X30465Y23085D01*
X30401Y23002D01*
X30360Y22904D01*
X30347Y22800D01*
Y22653D01*
X30028D01*
Y22800D01*
X30015Y22904D01*
X29974Y23002D01*
X29910Y23085D01*
X29827Y23149D01*
X29729Y23190D01*
X29625Y23203D01*
X29521Y23190D01*
X29423Y23149D01*
X29340Y23085D01*
X29276Y23002D01*
X29235Y22904D01*
X29222Y22800D01*
Y22200D01*
X29235Y22096D01*
X29276Y21998D01*
X29340Y21915D01*
X29423Y21851D01*
X29521Y21810D01*
X29625Y21797D01*
X29729Y21810D01*
X29827Y21851D01*
X29910Y21915D01*
X29974Y21998D01*
X30015Y22096D01*
X30028Y22200D01*
Y22347D01*
X30347D01*
Y22200D01*
X30360Y22096D01*
X30401Y21998D01*
X30465Y21915D01*
X30548Y21851D01*
X30646Y21810D01*
X30750Y21797D01*
X30854Y21810D01*
X30952Y21851D01*
X31035Y21915D01*
X31099Y21998D01*
X31140Y22096D01*
X31153Y22200D01*
Y22800D01*
X31140Y22904D01*
X31099Y23002D01*
X31035Y23085D01*
X30952Y23149D01*
X30854Y23190D01*
X30750Y23203D01*
D02*
G37*
G36*
X39375D02*
X39271Y23190D01*
X39173Y23149D01*
X39090Y23085D01*
X39026Y23002D01*
X38985Y22904D01*
X38972Y22800D01*
Y22653D01*
X38653D01*
Y22800D01*
X38640Y22904D01*
X38599Y23002D01*
X38535Y23085D01*
X38452Y23149D01*
X38354Y23190D01*
X38250Y23203D01*
X38146Y23190D01*
X38048Y23149D01*
X37965Y23085D01*
X37901Y23002D01*
X37860Y22904D01*
X37847Y22800D01*
Y22200D01*
X37860Y22096D01*
X37901Y21998D01*
X37965Y21915D01*
X38048Y21851D01*
X38146Y21810D01*
X38250Y21797D01*
X38354Y21810D01*
X38452Y21851D01*
X38535Y21915D01*
X38599Y21998D01*
X38640Y22096D01*
X38653Y22200D01*
Y22347D01*
X38972D01*
Y22200D01*
X38985Y22096D01*
X39026Y21998D01*
X39090Y21915D01*
X39173Y21851D01*
X39271Y21810D01*
X39375Y21797D01*
X39479Y21810D01*
X39577Y21851D01*
X39660Y21915D01*
X39724Y21998D01*
X39765Y22096D01*
X39778Y22200D01*
Y22800D01*
X39765Y22904D01*
X39724Y23002D01*
X39660Y23085D01*
X39577Y23149D01*
X39479Y23190D01*
X39375Y23203D01*
D02*
G37*
G36*
X22000Y25929D02*
X21819Y25912D01*
X21644Y25859D01*
X21484Y25773D01*
X21343Y25657D01*
X21227Y25516D01*
X21141Y25356D01*
X21088Y25181D01*
X21071Y25000D01*
X21088Y24819D01*
X21141Y24644D01*
X21227Y24484D01*
X21343Y24343D01*
X21484Y24227D01*
X21644Y24141D01*
X21819Y24088D01*
X22000Y24071D01*
X22181Y24088D01*
X22356Y24141D01*
X22516Y24227D01*
X22657Y24343D01*
X22773Y24484D01*
X22859Y24644D01*
X22912Y24819D01*
X22929Y25000D01*
X22912Y25181D01*
X22859Y25356D01*
X22773Y25516D01*
X22657Y25657D01*
X22516Y25773D01*
X22356Y25859D01*
X22181Y25912D01*
X22000Y25929D01*
D02*
G37*
G36*
X42125Y25703D02*
X42021Y25690D01*
X41923Y25649D01*
X41840Y25585D01*
X41776Y25502D01*
X41735Y25404D01*
X41722Y25300D01*
Y24700D01*
X41735Y24596D01*
X41776Y24498D01*
X41840Y24415D01*
X41923Y24351D01*
X42021Y24310D01*
X42125Y24297D01*
X42229Y24310D01*
X42327Y24351D01*
X42410Y24415D01*
X42474Y24498D01*
X42515Y24596D01*
X42528Y24700D01*
Y25300D01*
X42515Y25404D01*
X42474Y25502D01*
X42410Y25585D01*
X42327Y25649D01*
X42229Y25690D01*
X42125Y25703D01*
D02*
G37*
G36*
X43250D02*
X43146Y25690D01*
X43048Y25649D01*
X42965Y25585D01*
X42901Y25502D01*
X42860Y25404D01*
X42847Y25300D01*
Y24700D01*
X42860Y24596D01*
X42901Y24498D01*
X42965Y24415D01*
X43048Y24351D01*
X43146Y24310D01*
X43250Y24297D01*
X43354Y24310D01*
X43452Y24351D01*
X43535Y24415D01*
X43599Y24498D01*
X43640Y24596D01*
X43653Y24700D01*
Y25300D01*
X43640Y25404D01*
X43599Y25502D01*
X43535Y25585D01*
X43452Y25649D01*
X43354Y25690D01*
X43250Y25703D01*
D02*
G37*
G36*
X25750D02*
X25646Y25690D01*
X25548Y25649D01*
X25465Y25585D01*
X25401Y25502D01*
X25360Y25404D01*
X25347Y25300D01*
Y24700D01*
X25360Y24596D01*
X25401Y24498D01*
X25465Y24415D01*
X25548Y24351D01*
X25646Y24310D01*
X25750Y24297D01*
X25854Y24310D01*
X25952Y24351D01*
X26035Y24415D01*
X26099Y24498D01*
X26140Y24596D01*
X26153Y24700D01*
Y25300D01*
X26140Y25404D01*
X26099Y25502D01*
X26035Y25585D01*
X25952Y25649D01*
X25854Y25690D01*
X25750Y25703D01*
D02*
G37*
G36*
X26875D02*
X26771Y25690D01*
X26673Y25649D01*
X26590Y25585D01*
X26526Y25502D01*
X26485Y25404D01*
X26472Y25300D01*
Y24700D01*
X26485Y24596D01*
X26526Y24498D01*
X26590Y24415D01*
X26673Y24351D01*
X26771Y24310D01*
X26875Y24297D01*
X26979Y24310D01*
X27077Y24351D01*
X27160Y24415D01*
X27224Y24498D01*
X27265Y24596D01*
X27278Y24700D01*
Y25300D01*
X27265Y25404D01*
X27224Y25502D01*
X27160Y25585D01*
X27077Y25649D01*
X26979Y25690D01*
X26875Y25703D01*
D02*
G37*
G36*
X42125Y23203D02*
X42021Y23190D01*
X41923Y23149D01*
X41840Y23085D01*
X41776Y23002D01*
X41735Y22904D01*
X41722Y22800D01*
Y22200D01*
X41735Y22096D01*
X41776Y21998D01*
X41840Y21915D01*
X41923Y21851D01*
X42021Y21810D01*
X42125Y21797D01*
X42229Y21810D01*
X42327Y21851D01*
X42410Y21915D01*
X42474Y21998D01*
X42515Y22096D01*
X42528Y22200D01*
Y22800D01*
X42515Y22904D01*
X42474Y23002D01*
X42410Y23085D01*
X42327Y23149D01*
X42229Y23190D01*
X42125Y23203D01*
D02*
G37*
G36*
X43250D02*
X43146Y23190D01*
X43048Y23149D01*
X42965Y23085D01*
X42901Y23002D01*
X42860Y22904D01*
X42847Y22800D01*
Y22200D01*
X42860Y22096D01*
X42901Y21998D01*
X42965Y21915D01*
X43048Y21851D01*
X43146Y21810D01*
X43250Y21797D01*
X43354Y21810D01*
X43452Y21851D01*
X43535Y21915D01*
X43599Y21998D01*
X43640Y22096D01*
X43653Y22200D01*
Y22800D01*
X43640Y22904D01*
X43599Y23002D01*
X43535Y23085D01*
X43452Y23149D01*
X43354Y23190D01*
X43250Y23203D01*
D02*
G37*
G36*
X25750D02*
X25646Y23190D01*
X25548Y23149D01*
X25465Y23085D01*
X25401Y23002D01*
X25360Y22904D01*
X25347Y22800D01*
Y22200D01*
X25360Y22096D01*
X25401Y21998D01*
X25465Y21915D01*
X25548Y21851D01*
X25646Y21810D01*
X25750Y21797D01*
X25854Y21810D01*
X25952Y21851D01*
X26035Y21915D01*
X26099Y21998D01*
X26140Y22096D01*
X26153Y22200D01*
Y22800D01*
X26140Y22904D01*
X26099Y23002D01*
X26035Y23085D01*
X25952Y23149D01*
X25854Y23190D01*
X25750Y23203D01*
D02*
G37*
G36*
X26875D02*
X26771Y23190D01*
X26673Y23149D01*
X26590Y23085D01*
X26526Y23002D01*
X26485Y22904D01*
X26472Y22800D01*
Y22200D01*
X26485Y22096D01*
X26526Y21998D01*
X26590Y21915D01*
X26673Y21851D01*
X26771Y21810D01*
X26875Y21797D01*
X26979Y21810D01*
X27077Y21851D01*
X27160Y21915D01*
X27224Y21998D01*
X27265Y22096D01*
X27278Y22200D01*
Y22800D01*
X27265Y22904D01*
X27224Y23002D01*
X27160Y23085D01*
X27077Y23149D01*
X26979Y23190D01*
X26875Y23203D01*
D02*
G37*
G36*
X54625D02*
X54521Y23190D01*
X54423Y23149D01*
X54340Y23085D01*
X54276Y23002D01*
X54235Y22904D01*
X54222Y22800D01*
Y22200D01*
X54235Y22096D01*
X54276Y21998D01*
X54340Y21915D01*
X54423Y21851D01*
X54521Y21810D01*
X54625Y21797D01*
X54729Y21810D01*
X54827Y21851D01*
X54910Y21915D01*
X54974Y21998D01*
X55015Y22096D01*
X55028Y22200D01*
Y22800D01*
X55015Y22904D01*
X54974Y23002D01*
X54910Y23085D01*
X54827Y23149D01*
X54729Y23190D01*
X54625Y23203D01*
D02*
G37*
G36*
X34500Y22903D02*
X34396Y22890D01*
X34298Y22849D01*
X34215Y22785D01*
X34151Y22702D01*
X34110Y22604D01*
X34097Y22500D01*
X34110Y22396D01*
X34151Y22298D01*
X34215Y22215D01*
X34298Y22151D01*
X34396Y22110D01*
X34500Y22097D01*
X34604Y22110D01*
X34702Y22151D01*
X34785Y22215D01*
X34849Y22298D01*
X34890Y22396D01*
X34903Y22500D01*
X34890Y22604D01*
X34849Y22702D01*
X34785Y22785D01*
X34702Y22849D01*
X34604Y22890D01*
X34500Y22903D01*
D02*
G37*
G36*
X35500D02*
X35396Y22890D01*
X35298Y22849D01*
X35215Y22785D01*
X35151Y22702D01*
X35110Y22604D01*
X35097Y22500D01*
X35110Y22396D01*
X35151Y22298D01*
X35215Y22215D01*
X35298Y22151D01*
X35396Y22110D01*
X35500Y22097D01*
X35604Y22110D01*
X35702Y22151D01*
X35785Y22215D01*
X35849Y22298D01*
X35890Y22396D01*
X35903Y22500D01*
X35890Y22604D01*
X35849Y22702D01*
X35785Y22785D01*
X35702Y22849D01*
X35604Y22890D01*
X35500Y22903D01*
D02*
G37*
G36*
X55750Y23203D02*
X55646Y23190D01*
X55548Y23149D01*
X55465Y23085D01*
X55401Y23002D01*
X55360Y22904D01*
X55347Y22800D01*
Y22200D01*
X55360Y22096D01*
X55401Y21998D01*
X55465Y21915D01*
X55548Y21851D01*
X55646Y21810D01*
X55750Y21797D01*
X55854Y21810D01*
X55952Y21851D01*
X56035Y21915D01*
X56099Y21998D01*
X56140Y22096D01*
X56153Y22200D01*
Y22800D01*
X56140Y22904D01*
X56099Y23002D01*
X56035Y23085D01*
X55952Y23149D01*
X55854Y23190D01*
X55750Y23203D01*
D02*
G37*
G36*
X33500Y22903D02*
X33396Y22890D01*
X33298Y22849D01*
X33215Y22785D01*
X33151Y22702D01*
X33110Y22604D01*
X33097Y22500D01*
X33110Y22396D01*
X33151Y22298D01*
X33215Y22215D01*
X33298Y22151D01*
X33396Y22110D01*
X33500Y22097D01*
X33604Y22110D01*
X33702Y22151D01*
X33785Y22215D01*
X33849Y22298D01*
X33890Y22396D01*
X33903Y22500D01*
X33890Y22604D01*
X33849Y22702D01*
X33785Y22785D01*
X33702Y22849D01*
X33604Y22890D01*
X33500Y22903D01*
D02*
G37*
G36*
X54625Y25703D02*
X54521Y25690D01*
X54423Y25649D01*
X54340Y25585D01*
X54276Y25502D01*
X54235Y25404D01*
X54222Y25300D01*
Y24700D01*
X54235Y24596D01*
X54276Y24498D01*
X54340Y24415D01*
X54423Y24351D01*
X54521Y24310D01*
X54625Y24297D01*
X54729Y24310D01*
X54827Y24351D01*
X54910Y24415D01*
X54974Y24498D01*
X55015Y24596D01*
X55028Y24700D01*
Y25300D01*
X55015Y25404D01*
X54974Y25502D01*
X54910Y25585D01*
X54827Y25649D01*
X54729Y25690D01*
X54625Y25703D01*
D02*
G37*
G36*
X55750Y28203D02*
X55646Y28190D01*
X55548Y28149D01*
X55465Y28085D01*
X55401Y28002D01*
X55360Y27904D01*
X55347Y27800D01*
Y27200D01*
X55360Y27096D01*
X55401Y26998D01*
X55465Y26915D01*
X55548Y26851D01*
X55646Y26810D01*
X55750Y26797D01*
X55854Y26810D01*
X55952Y26851D01*
X56035Y26915D01*
X56099Y26998D01*
X56140Y27096D01*
X56153Y27200D01*
Y27800D01*
X56140Y27904D01*
X56099Y28002D01*
X56035Y28085D01*
X55952Y28149D01*
X55854Y28190D01*
X55750Y28203D01*
D02*
G37*
G36*
X33500Y27903D02*
X33396Y27890D01*
X33298Y27849D01*
X33215Y27785D01*
X33151Y27702D01*
X33110Y27604D01*
X33097Y27500D01*
X33110Y27396D01*
X33151Y27298D01*
X33215Y27215D01*
X33298Y27151D01*
X33396Y27110D01*
X33500Y27097D01*
X33604Y27110D01*
X33702Y27151D01*
X33785Y27215D01*
X33849Y27298D01*
X33890Y27396D01*
X33903Y27500D01*
X33890Y27604D01*
X33849Y27702D01*
X33785Y27785D01*
X33702Y27849D01*
X33604Y27890D01*
X33500Y27903D01*
D02*
G37*
G36*
X43250Y28203D02*
X43146Y28190D01*
X43048Y28149D01*
X42965Y28085D01*
X42901Y28002D01*
X42860Y27904D01*
X42847Y27800D01*
Y27200D01*
X42860Y27096D01*
X42901Y26998D01*
X42965Y26915D01*
X43048Y26851D01*
X43146Y26810D01*
X43250Y26797D01*
X43354Y26810D01*
X43452Y26851D01*
X43535Y26915D01*
X43599Y26998D01*
X43640Y27096D01*
X43653Y27200D01*
Y27800D01*
X43640Y27904D01*
X43599Y28002D01*
X43535Y28085D01*
X43452Y28149D01*
X43354Y28190D01*
X43250Y28203D01*
D02*
G37*
G36*
X54625D02*
X54521Y28190D01*
X54423Y28149D01*
X54340Y28085D01*
X54276Y28002D01*
X54235Y27904D01*
X54222Y27800D01*
Y27200D01*
X54235Y27096D01*
X54276Y26998D01*
X54340Y26915D01*
X54423Y26851D01*
X54521Y26810D01*
X54625Y26797D01*
X54729Y26810D01*
X54827Y26851D01*
X54910Y26915D01*
X54974Y26998D01*
X55015Y27096D01*
X55028Y27200D01*
Y27800D01*
X55015Y27904D01*
X54974Y28002D01*
X54910Y28085D01*
X54827Y28149D01*
X54729Y28190D01*
X54625Y28203D01*
D02*
G37*
G36*
X34500Y27903D02*
X34396Y27890D01*
X34298Y27849D01*
X34215Y27785D01*
X34151Y27702D01*
X34110Y27604D01*
X34097Y27500D01*
X34110Y27396D01*
X34151Y27298D01*
X34215Y27215D01*
X34298Y27151D01*
X34396Y27110D01*
X34500Y27097D01*
X34604Y27110D01*
X34702Y27151D01*
X34785Y27215D01*
X34849Y27298D01*
X34890Y27396D01*
X34903Y27500D01*
X34890Y27604D01*
X34849Y27702D01*
X34785Y27785D01*
X34702Y27849D01*
X34604Y27890D01*
X34500Y27903D01*
D02*
G37*
G36*
X39375Y28203D02*
X39271Y28190D01*
X39173Y28149D01*
X39090Y28085D01*
X39026Y28002D01*
X38985Y27904D01*
X38972Y27800D01*
Y27653D01*
X38653D01*
Y27800D01*
X38640Y27904D01*
X38599Y28002D01*
X38535Y28085D01*
X38452Y28149D01*
X38354Y28190D01*
X38250Y28203D01*
X38146Y28190D01*
X38048Y28149D01*
X37965Y28085D01*
X37901Y28002D01*
X37860Y27904D01*
X37847Y27800D01*
Y27200D01*
X37860Y27096D01*
X37901Y26998D01*
X37965Y26915D01*
X38048Y26851D01*
X38146Y26810D01*
X38250Y26797D01*
X38354Y26810D01*
X38452Y26851D01*
X38535Y26915D01*
X38599Y26998D01*
X38640Y27096D01*
X38653Y27200D01*
Y27347D01*
X38972D01*
Y27200D01*
X38985Y27096D01*
X39026Y26998D01*
X39090Y26915D01*
X39173Y26851D01*
X39271Y26810D01*
X39375Y26797D01*
X39479Y26810D01*
X39577Y26851D01*
X39660Y26915D01*
X39724Y26998D01*
X39765Y27096D01*
X39778Y27200D01*
Y27800D01*
X39765Y27904D01*
X39724Y28002D01*
X39660Y28085D01*
X39577Y28149D01*
X39479Y28190D01*
X39375Y28203D01*
D02*
G37*
G36*
X51875D02*
X51771Y28190D01*
X51673Y28149D01*
X51590Y28085D01*
X51526Y28002D01*
X51485Y27904D01*
X51472Y27800D01*
Y27653D01*
X51153D01*
Y27800D01*
X51140Y27904D01*
X51099Y28002D01*
X51035Y28085D01*
X50952Y28149D01*
X50854Y28190D01*
X50750Y28203D01*
X50646Y28190D01*
X50548Y28149D01*
X50465Y28085D01*
X50401Y28002D01*
X50360Y27904D01*
X50347Y27800D01*
Y27200D01*
X50360Y27096D01*
X50401Y26998D01*
X50465Y26915D01*
X50548Y26851D01*
X50646Y26810D01*
X50750Y26797D01*
X50854Y26810D01*
X50952Y26851D01*
X51035Y26915D01*
X51099Y26998D01*
X51140Y27096D01*
X51153Y27200D01*
Y27347D01*
X51472D01*
Y27200D01*
X51485Y27096D01*
X51526Y26998D01*
X51590Y26915D01*
X51673Y26851D01*
X51771Y26810D01*
X51875Y26797D01*
X51979Y26810D01*
X52077Y26851D01*
X52160Y26915D01*
X52224Y26998D01*
X52265Y27096D01*
X52278Y27200D01*
Y27800D01*
X52265Y27904D01*
X52224Y28002D01*
X52160Y28085D01*
X52077Y28149D01*
X51979Y28190D01*
X51875Y28203D01*
D02*
G37*
G36*
X35500Y27903D02*
X35396Y27890D01*
X35298Y27849D01*
X35215Y27785D01*
X35151Y27702D01*
X35110Y27604D01*
X35097Y27500D01*
X35110Y27396D01*
X35151Y27298D01*
X35215Y27215D01*
X35298Y27151D01*
X35396Y27110D01*
X35500Y27097D01*
X35604Y27110D01*
X35702Y27151D01*
X35785Y27215D01*
X35849Y27298D01*
X35890Y27396D01*
X35903Y27500D01*
X35890Y27604D01*
X35849Y27702D01*
X35785Y27785D01*
X35702Y27849D01*
X35604Y27890D01*
X35500Y27903D01*
D02*
G37*
G36*
X30750Y28203D02*
X30646Y28190D01*
X30548Y28149D01*
X30465Y28085D01*
X30401Y28002D01*
X30360Y27904D01*
X30347Y27800D01*
Y27653D01*
X30028D01*
Y27800D01*
X30015Y27904D01*
X29974Y28002D01*
X29910Y28085D01*
X29827Y28149D01*
X29729Y28190D01*
X29625Y28203D01*
X29521Y28190D01*
X29423Y28149D01*
X29340Y28085D01*
X29276Y28002D01*
X29235Y27904D01*
X29222Y27800D01*
Y27200D01*
X29235Y27096D01*
X29276Y26998D01*
X29340Y26915D01*
X29423Y26851D01*
X29521Y26810D01*
X29625Y26797D01*
X29729Y26810D01*
X29827Y26851D01*
X29910Y26915D01*
X29974Y26998D01*
X30015Y27096D01*
X30028Y27200D01*
Y27347D01*
X30347D01*
Y27200D01*
X30360Y27096D01*
X30401Y26998D01*
X30465Y26915D01*
X30548Y26851D01*
X30646Y26810D01*
X30750Y26797D01*
X30854Y26810D01*
X30952Y26851D01*
X31035Y26915D01*
X31099Y26998D01*
X31140Y27096D01*
X31153Y27200D01*
Y27800D01*
X31140Y27904D01*
X31099Y28002D01*
X31035Y28085D01*
X30952Y28149D01*
X30854Y28190D01*
X30750Y28203D01*
D02*
G37*
G36*
X42125D02*
X42021Y28190D01*
X41923Y28149D01*
X41840Y28085D01*
X41776Y28002D01*
X41735Y27904D01*
X41722Y27800D01*
Y27200D01*
X41735Y27096D01*
X41776Y26998D01*
X41840Y26915D01*
X41923Y26851D01*
X42021Y26810D01*
X42125Y26797D01*
X42229Y26810D01*
X42327Y26851D01*
X42410Y26915D01*
X42474Y26998D01*
X42515Y27096D01*
X42528Y27200D01*
Y27800D01*
X42515Y27904D01*
X42474Y28002D01*
X42410Y28085D01*
X42327Y28149D01*
X42229Y28190D01*
X42125Y28203D01*
D02*
G37*
G36*
X34500Y25403D02*
X34396Y25390D01*
X34298Y25349D01*
X34215Y25285D01*
X34151Y25202D01*
X34110Y25104D01*
X34097Y25000D01*
X34110Y24896D01*
X34151Y24798D01*
X34215Y24715D01*
X34298Y24651D01*
X34396Y24610D01*
X34500Y24597D01*
X34604Y24610D01*
X34702Y24651D01*
X34785Y24715D01*
X34849Y24798D01*
X34890Y24896D01*
X34903Y25000D01*
X34890Y25104D01*
X34849Y25202D01*
X34785Y25285D01*
X34702Y25349D01*
X34604Y25390D01*
X34500Y25403D01*
D02*
G37*
G36*
X35500D02*
X35396Y25390D01*
X35298Y25349D01*
X35215Y25285D01*
X35151Y25202D01*
X35110Y25104D01*
X35097Y25000D01*
X35110Y24896D01*
X35151Y24798D01*
X35215Y24715D01*
X35298Y24651D01*
X35396Y24610D01*
X35500Y24597D01*
X35604Y24610D01*
X35702Y24651D01*
X35785Y24715D01*
X35849Y24798D01*
X35890Y24896D01*
X35903Y25000D01*
X35890Y25104D01*
X35849Y25202D01*
X35785Y25285D01*
X35702Y25349D01*
X35604Y25390D01*
X35500Y25403D01*
D02*
G37*
G36*
X55750Y25703D02*
X55646Y25690D01*
X55548Y25649D01*
X55465Y25585D01*
X55401Y25502D01*
X55360Y25404D01*
X55347Y25300D01*
Y24700D01*
X55360Y24596D01*
X55401Y24498D01*
X55465Y24415D01*
X55548Y24351D01*
X55646Y24310D01*
X55750Y24297D01*
X55854Y24310D01*
X55952Y24351D01*
X56035Y24415D01*
X56099Y24498D01*
X56140Y24596D01*
X56153Y24700D01*
Y25300D01*
X56140Y25404D01*
X56099Y25502D01*
X56035Y25585D01*
X55952Y25649D01*
X55854Y25690D01*
X55750Y25703D01*
D02*
G37*
G36*
X33500Y25403D02*
X33396Y25390D01*
X33298Y25349D01*
X33215Y25285D01*
X33151Y25202D01*
X33110Y25104D01*
X33097Y25000D01*
X33110Y24896D01*
X33151Y24798D01*
X33215Y24715D01*
X33298Y24651D01*
X33396Y24610D01*
X33500Y24597D01*
X33604Y24610D01*
X33702Y24651D01*
X33785Y24715D01*
X33849Y24798D01*
X33890Y24896D01*
X33903Y25000D01*
X33890Y25104D01*
X33849Y25202D01*
X33785Y25285D01*
X33702Y25349D01*
X33604Y25390D01*
X33500Y25403D01*
D02*
G37*
G36*
X30750Y25703D02*
X30646Y25690D01*
X30548Y25649D01*
X30465Y25585D01*
X30401Y25502D01*
X30360Y25404D01*
X30347Y25300D01*
Y25153D01*
X30028D01*
Y25300D01*
X30015Y25404D01*
X29974Y25502D01*
X29910Y25585D01*
X29827Y25649D01*
X29729Y25690D01*
X29625Y25703D01*
X29521Y25690D01*
X29423Y25649D01*
X29340Y25585D01*
X29276Y25502D01*
X29235Y25404D01*
X29222Y25300D01*
Y24700D01*
X29235Y24596D01*
X29276Y24498D01*
X29340Y24415D01*
X29423Y24351D01*
X29521Y24310D01*
X29625Y24297D01*
X29729Y24310D01*
X29827Y24351D01*
X29910Y24415D01*
X29974Y24498D01*
X30015Y24596D01*
X30028Y24700D01*
Y24847D01*
X30347D01*
Y24700D01*
X30360Y24596D01*
X30401Y24498D01*
X30465Y24415D01*
X30548Y24351D01*
X30646Y24310D01*
X30750Y24297D01*
X30854Y24310D01*
X30952Y24351D01*
X31035Y24415D01*
X31099Y24498D01*
X31140Y24596D01*
X31153Y24700D01*
Y25300D01*
X31140Y25404D01*
X31099Y25502D01*
X31035Y25585D01*
X30952Y25649D01*
X30854Y25690D01*
X30750Y25703D01*
D02*
G37*
G36*
X25750Y28203D02*
X25646Y28190D01*
X25548Y28149D01*
X25465Y28085D01*
X25401Y28002D01*
X25360Y27904D01*
X25347Y27800D01*
Y27200D01*
X25360Y27096D01*
X25401Y26998D01*
X25465Y26915D01*
X25548Y26851D01*
X25646Y26810D01*
X25750Y26797D01*
X25854Y26810D01*
X25952Y26851D01*
X26035Y26915D01*
X26099Y26998D01*
X26140Y27096D01*
X26153Y27200D01*
Y27800D01*
X26140Y27904D01*
X26099Y28002D01*
X26035Y28085D01*
X25952Y28149D01*
X25854Y28190D01*
X25750Y28203D01*
D02*
G37*
G36*
X26875D02*
X26771Y28190D01*
X26673Y28149D01*
X26590Y28085D01*
X26526Y28002D01*
X26485Y27904D01*
X26472Y27800D01*
Y27200D01*
X26485Y27096D01*
X26526Y26998D01*
X26590Y26915D01*
X26673Y26851D01*
X26771Y26810D01*
X26875Y26797D01*
X26979Y26810D01*
X27077Y26851D01*
X27160Y26915D01*
X27224Y26998D01*
X27265Y27096D01*
X27278Y27200D01*
Y27800D01*
X27265Y27904D01*
X27224Y28002D01*
X27160Y28085D01*
X27077Y28149D01*
X26979Y28190D01*
X26875Y28203D01*
D02*
G37*
G36*
X39375Y25703D02*
X39271Y25690D01*
X39173Y25649D01*
X39090Y25585D01*
X39026Y25502D01*
X38985Y25404D01*
X38972Y25300D01*
Y25153D01*
X38653D01*
Y25300D01*
X38640Y25404D01*
X38599Y25502D01*
X38535Y25585D01*
X38452Y25649D01*
X38354Y25690D01*
X38250Y25703D01*
X38146Y25690D01*
X38048Y25649D01*
X37965Y25585D01*
X37901Y25502D01*
X37860Y25404D01*
X37847Y25300D01*
Y24700D01*
X37860Y24596D01*
X37901Y24498D01*
X37965Y24415D01*
X38048Y24351D01*
X38146Y24310D01*
X38250Y24297D01*
X38354Y24310D01*
X38452Y24351D01*
X38535Y24415D01*
X38599Y24498D01*
X38640Y24596D01*
X38653Y24700D01*
Y24847D01*
X38972D01*
Y24700D01*
X38985Y24596D01*
X39026Y24498D01*
X39090Y24415D01*
X39173Y24351D01*
X39271Y24310D01*
X39375Y24297D01*
X39479Y24310D01*
X39577Y24351D01*
X39660Y24415D01*
X39724Y24498D01*
X39765Y24596D01*
X39778Y24700D01*
Y25300D01*
X39765Y25404D01*
X39724Y25502D01*
X39660Y25585D01*
X39577Y25649D01*
X39479Y25690D01*
X39375Y25703D01*
D02*
G37*
G36*
X51875D02*
X51771Y25690D01*
X51673Y25649D01*
X51590Y25585D01*
X51526Y25502D01*
X51485Y25404D01*
X51472Y25300D01*
Y25153D01*
X51153D01*
Y25300D01*
X51140Y25404D01*
X51099Y25502D01*
X51035Y25585D01*
X50952Y25649D01*
X50854Y25690D01*
X50750Y25703D01*
X50646Y25690D01*
X50548Y25649D01*
X50465Y25585D01*
X50401Y25502D01*
X50360Y25404D01*
X50347Y25300D01*
Y24700D01*
X50360Y24596D01*
X50401Y24498D01*
X50465Y24415D01*
X50548Y24351D01*
X50646Y24310D01*
X50750Y24297D01*
X50854Y24310D01*
X50952Y24351D01*
X51035Y24415D01*
X51099Y24498D01*
X51140Y24596D01*
X51153Y24700D01*
Y24847D01*
X51472D01*
Y24700D01*
X51485Y24596D01*
X51526Y24498D01*
X51590Y24415D01*
X51673Y24351D01*
X51771Y24310D01*
X51875Y24297D01*
X51979Y24310D01*
X52077Y24351D01*
X52160Y24415D01*
X52224Y24498D01*
X52265Y24596D01*
X52278Y24700D01*
Y25300D01*
X52265Y25404D01*
X52224Y25502D01*
X52160Y25585D01*
X52077Y25649D01*
X51979Y25690D01*
X51875Y25703D01*
D02*
G37*
%LPD*%
D10*
X50750Y22500D02*
X51875D01*
X50750Y25000D02*
X51875D01*
X50750Y27500D02*
X51875D01*
X38250Y22500D02*
X39375D01*
X38250Y25000D02*
X39375D01*
X38250Y27500D02*
X39375D01*
X29625Y22500D02*
X30750D01*
X29625Y25000D02*
X30750D01*
X29625Y27500D02*
X30750D01*
D11*
X55750Y22500D02*
D03*
X54625D02*
D03*
X50750D02*
D03*
X51875D02*
D03*
Y25000D02*
D03*
X50750D02*
D03*
X54625D02*
D03*
X55750D02*
D03*
Y27500D02*
D03*
X54625D02*
D03*
X50750D02*
D03*
X51875D02*
D03*
X43250Y22500D02*
D03*
X42125D02*
D03*
X38250D02*
D03*
X39375D02*
D03*
Y25000D02*
D03*
X38250D02*
D03*
X42125D02*
D03*
X43250D02*
D03*
Y27500D02*
D03*
X42125D02*
D03*
X38250D02*
D03*
X39375D02*
D03*
X30750Y22500D02*
D03*
X29625D02*
D03*
X25750D02*
D03*
X26875D02*
D03*
Y25000D02*
D03*
X25750D02*
D03*
X29625D02*
D03*
X30750D02*
D03*
Y27500D02*
D03*
X29625D02*
D03*
X25750D02*
D03*
X26875D02*
D03*
D12*
X35500Y22500D02*
D03*
X33500D02*
D03*
X34500D02*
D03*
X35500Y25000D02*
D03*
X33500D02*
D03*
X34500D02*
D03*
X35500Y27500D02*
D03*
X33500D02*
D03*
X34500D02*
D03*
D13*
X22000Y25000D02*
D03*
X46950Y24900D02*
D03*
M02*
