M48
;Layer_Color=9474304
;FILE_FORMAT=2:4
INCH,LZ
;TYPE=PLATED
T2F00S00C0.0320
;TYPE=NON_PLATED
%
G90
G05
T02
G00X05075Y02226
M15
G01Y02274
M16
G00X051875Y02226
M15
G01Y02274
M16
G00X051875Y02476
M15
G01Y02524
M16
G00X05075Y02476
M15
G01Y02524
M16
G00X05075Y02726
M15
G01Y02774
M16
G00X051875Y02726
M15
G01Y02774
M16
G00X054625Y02726
M15
G01Y02774
M16
G00X05575Y02726
M15
G01Y02774
M16
G00X05575Y02476
M15
G01Y02524
M16
G00X054625Y02476
M15
G01Y02524
M16
G00X054625Y02226
M15
G01Y02274
M16
G00X05575Y02226
M15
G01Y02274
M16
G00X04325Y02226
M15
G01Y02274
M16
G00X042125Y02226
M15
G01Y02274
M16
G00X042125Y02476
M15
G01Y02524
M16
G00X04325Y02476
M15
G01Y02524
M16
G00X04325Y02726
M15
G01Y02774
M16
G00X042125Y02726
M15
G01Y02774
M16
G00X039375Y02726
M15
G01Y02774
M16
G00X03825Y02726
M15
G01Y02774
M16
G00X03825Y02476
M15
G01Y02524
M16
G00X039375Y02476
M15
G01Y02524
M16
G00X039375Y02226
M15
G01Y02274
M16
G00X03825Y02226
M15
G01Y02274
M16
G00X03075Y02226
M15
G01Y02274
M16
G00X029625Y02226
M15
G01Y02274
M16
G00X029625Y02476
M15
G01Y02524
M16
G00X03075Y02476
M15
G01Y02524
M16
G00X03075Y02726
M15
G01Y02774
M16
G00X029625Y02726
M15
G01Y02774
M16
G00X026875Y02726
M15
G01Y02774
M16
G00X02575Y02726
M15
G01Y02774
M16
G00X02575Y02476
M15
G01Y02524
M16
G00X026875Y02476
M15
G01Y02524
M16
G00X026875Y02226
M15
G01Y02274
M16
G00X02575Y02226
M15
G01Y02274
M16
M17
M30
