G04 Layer_Physical_Order=2*
G04 Layer_Color=16711680*
%FSLAX24Y24*%
%MOIN*%
G70*
G01*
G75*
%ADD10C,0.0100*%
%ADD11O,0.0600X0.1200*%
%ADD12C,0.0600*%
%ADD13C,0.1600*%
G36*
X57750Y20000D02*
X57750Y20000D01*
X20000D01*
Y30000D01*
X57750D01*
Y20000D01*
D02*
G37*
%LPC*%
G36*
X52000Y23203D02*
X51896Y23190D01*
X51798Y23149D01*
X51715Y23085D01*
X51651Y23002D01*
X51610Y22904D01*
X51597Y22800D01*
Y22653D01*
X51153D01*
Y22800D01*
X51140Y22904D01*
X51099Y23002D01*
X51035Y23085D01*
X50952Y23149D01*
X50854Y23190D01*
X50750Y23203D01*
X50646Y23190D01*
X50548Y23149D01*
X50465Y23085D01*
X50401Y23002D01*
X50360Y22904D01*
X50347Y22800D01*
Y22200D01*
X50360Y22096D01*
X50401Y21998D01*
X50465Y21915D01*
X50548Y21851D01*
X50646Y21810D01*
X50750Y21797D01*
X50854Y21810D01*
X50952Y21851D01*
X51035Y21915D01*
X51099Y21998D01*
X51140Y22096D01*
X51153Y22200D01*
Y22347D01*
X51597D01*
Y22200D01*
X51610Y22096D01*
X51651Y21998D01*
X51715Y21915D01*
X51798Y21851D01*
X51896Y21810D01*
X52000Y21797D01*
X52104Y21810D01*
X52202Y21851D01*
X52285Y21915D01*
X52349Y21998D01*
X52390Y22096D01*
X52403Y22200D01*
Y22800D01*
X52390Y22904D01*
X52349Y23002D01*
X52285Y23085D01*
X52202Y23149D01*
X52104Y23190D01*
X52000Y23203D01*
D02*
G37*
G36*
X46950Y25829D02*
X46769Y25812D01*
X46594Y25759D01*
X46434Y25673D01*
X46293Y25557D01*
X46177Y25416D01*
X46091Y25256D01*
X46038Y25081D01*
X46021Y24900D01*
X46038Y24719D01*
X46091Y24544D01*
X46177Y24384D01*
X46293Y24243D01*
X46434Y24127D01*
X46594Y24041D01*
X46769Y23988D01*
X46950Y23971D01*
X47131Y23988D01*
X47306Y24041D01*
X47466Y24127D01*
X47607Y24243D01*
X47723Y24384D01*
X47809Y24544D01*
X47862Y24719D01*
X47879Y24900D01*
X47862Y25081D01*
X47809Y25256D01*
X47723Y25416D01*
X47607Y25557D01*
X47466Y25673D01*
X47306Y25759D01*
X47131Y25812D01*
X46950Y25829D01*
D02*
G37*
G36*
X30750Y23203D02*
X30646Y23190D01*
X30548Y23149D01*
X30465Y23085D01*
X30401Y23002D01*
X30360Y22904D01*
X30347Y22800D01*
Y22653D01*
X29903D01*
Y22800D01*
X29890Y22904D01*
X29849Y23002D01*
X29785Y23085D01*
X29702Y23149D01*
X29604Y23190D01*
X29500Y23203D01*
X29396Y23190D01*
X29298Y23149D01*
X29215Y23085D01*
X29151Y23002D01*
X29110Y22904D01*
X29097Y22800D01*
Y22200D01*
X29110Y22096D01*
X29151Y21998D01*
X29215Y21915D01*
X29298Y21851D01*
X29396Y21810D01*
X29500Y21797D01*
X29604Y21810D01*
X29702Y21851D01*
X29785Y21915D01*
X29849Y21998D01*
X29890Y22096D01*
X29903Y22200D01*
Y22347D01*
X30347D01*
Y22200D01*
X30360Y22096D01*
X30401Y21998D01*
X30465Y21915D01*
X30548Y21851D01*
X30646Y21810D01*
X30750Y21797D01*
X30854Y21810D01*
X30952Y21851D01*
X31035Y21915D01*
X31099Y21998D01*
X31140Y22096D01*
X31153Y22200D01*
Y22800D01*
X31140Y22904D01*
X31099Y23002D01*
X31035Y23085D01*
X30952Y23149D01*
X30854Y23190D01*
X30750Y23203D01*
D02*
G37*
G36*
X39500D02*
X39396Y23190D01*
X39298Y23149D01*
X39215Y23085D01*
X39151Y23002D01*
X39110Y22904D01*
X39097Y22800D01*
Y22653D01*
X38653D01*
Y22800D01*
X38640Y22904D01*
X38599Y23002D01*
X38535Y23085D01*
X38452Y23149D01*
X38354Y23190D01*
X38250Y23203D01*
X38146Y23190D01*
X38048Y23149D01*
X37965Y23085D01*
X37901Y23002D01*
X37860Y22904D01*
X37847Y22800D01*
Y22200D01*
X37860Y22096D01*
X37901Y21998D01*
X37965Y21915D01*
X38048Y21851D01*
X38146Y21810D01*
X38250Y21797D01*
X38354Y21810D01*
X38452Y21851D01*
X38535Y21915D01*
X38599Y21998D01*
X38640Y22096D01*
X38653Y22200D01*
Y22347D01*
X39097D01*
Y22200D01*
X39110Y22096D01*
X39151Y21998D01*
X39215Y21915D01*
X39298Y21851D01*
X39396Y21810D01*
X39500Y21797D01*
X39604Y21810D01*
X39702Y21851D01*
X39785Y21915D01*
X39849Y21998D01*
X39890Y22096D01*
X39903Y22200D01*
Y22800D01*
X39890Y22904D01*
X39849Y23002D01*
X39785Y23085D01*
X39702Y23149D01*
X39604Y23190D01*
X39500Y23203D01*
D02*
G37*
G36*
X22000Y25929D02*
X21819Y25912D01*
X21644Y25859D01*
X21484Y25773D01*
X21343Y25657D01*
X21227Y25516D01*
X21141Y25356D01*
X21088Y25181D01*
X21071Y25000D01*
X21088Y24819D01*
X21141Y24644D01*
X21227Y24484D01*
X21343Y24343D01*
X21484Y24227D01*
X21644Y24141D01*
X21819Y24088D01*
X22000Y24071D01*
X22181Y24088D01*
X22356Y24141D01*
X22516Y24227D01*
X22657Y24343D01*
X22773Y24484D01*
X22859Y24644D01*
X22912Y24819D01*
X22929Y25000D01*
X22912Y25181D01*
X22859Y25356D01*
X22773Y25516D01*
X22657Y25657D01*
X22516Y25773D01*
X22356Y25859D01*
X22181Y25912D01*
X22000Y25929D01*
D02*
G37*
G36*
X42000Y25703D02*
X41896Y25690D01*
X41798Y25649D01*
X41715Y25585D01*
X41651Y25502D01*
X41610Y25404D01*
X41597Y25300D01*
Y24700D01*
X41610Y24596D01*
X41651Y24498D01*
X41715Y24415D01*
X41798Y24351D01*
X41896Y24310D01*
X42000Y24297D01*
X42104Y24310D01*
X42202Y24351D01*
X42285Y24415D01*
X42349Y24498D01*
X42390Y24596D01*
X42403Y24700D01*
Y25300D01*
X42390Y25404D01*
X42349Y25502D01*
X42285Y25585D01*
X42202Y25649D01*
X42104Y25690D01*
X42000Y25703D01*
D02*
G37*
G36*
X43250D02*
X43146Y25690D01*
X43048Y25649D01*
X42965Y25585D01*
X42901Y25502D01*
X42860Y25404D01*
X42847Y25300D01*
Y24700D01*
X42860Y24596D01*
X42901Y24498D01*
X42965Y24415D01*
X43048Y24351D01*
X43146Y24310D01*
X43250Y24297D01*
X43354Y24310D01*
X43452Y24351D01*
X43535Y24415D01*
X43599Y24498D01*
X43640Y24596D01*
X43653Y24700D01*
Y25300D01*
X43640Y25404D01*
X43599Y25502D01*
X43535Y25585D01*
X43452Y25649D01*
X43354Y25690D01*
X43250Y25703D01*
D02*
G37*
G36*
X25750D02*
X25646Y25690D01*
X25548Y25649D01*
X25465Y25585D01*
X25401Y25502D01*
X25360Y25404D01*
X25347Y25300D01*
Y24700D01*
X25360Y24596D01*
X25401Y24498D01*
X25465Y24415D01*
X25548Y24351D01*
X25646Y24310D01*
X25750Y24297D01*
X25854Y24310D01*
X25952Y24351D01*
X26035Y24415D01*
X26099Y24498D01*
X26140Y24596D01*
X26153Y24700D01*
Y25300D01*
X26140Y25404D01*
X26099Y25502D01*
X26035Y25585D01*
X25952Y25649D01*
X25854Y25690D01*
X25750Y25703D01*
D02*
G37*
G36*
X27000D02*
X26896Y25690D01*
X26798Y25649D01*
X26715Y25585D01*
X26651Y25502D01*
X26610Y25404D01*
X26597Y25300D01*
Y24700D01*
X26610Y24596D01*
X26651Y24498D01*
X26715Y24415D01*
X26798Y24351D01*
X26896Y24310D01*
X27000Y24297D01*
X27104Y24310D01*
X27202Y24351D01*
X27285Y24415D01*
X27349Y24498D01*
X27390Y24596D01*
X27403Y24700D01*
Y25300D01*
X27390Y25404D01*
X27349Y25502D01*
X27285Y25585D01*
X27202Y25649D01*
X27104Y25690D01*
X27000Y25703D01*
D02*
G37*
G36*
X42000Y23203D02*
X41896Y23190D01*
X41798Y23149D01*
X41715Y23085D01*
X41651Y23002D01*
X41610Y22904D01*
X41597Y22800D01*
Y22200D01*
X41610Y22096D01*
X41651Y21998D01*
X41715Y21915D01*
X41798Y21851D01*
X41896Y21810D01*
X42000Y21797D01*
X42104Y21810D01*
X42202Y21851D01*
X42285Y21915D01*
X42349Y21998D01*
X42390Y22096D01*
X42403Y22200D01*
Y22800D01*
X42390Y22904D01*
X42349Y23002D01*
X42285Y23085D01*
X42202Y23149D01*
X42104Y23190D01*
X42000Y23203D01*
D02*
G37*
G36*
X43250D02*
X43146Y23190D01*
X43048Y23149D01*
X42965Y23085D01*
X42901Y23002D01*
X42860Y22904D01*
X42847Y22800D01*
Y22200D01*
X42860Y22096D01*
X42901Y21998D01*
X42965Y21915D01*
X43048Y21851D01*
X43146Y21810D01*
X43250Y21797D01*
X43354Y21810D01*
X43452Y21851D01*
X43535Y21915D01*
X43599Y21998D01*
X43640Y22096D01*
X43653Y22200D01*
Y22800D01*
X43640Y22904D01*
X43599Y23002D01*
X43535Y23085D01*
X43452Y23149D01*
X43354Y23190D01*
X43250Y23203D01*
D02*
G37*
G36*
X25750D02*
X25646Y23190D01*
X25548Y23149D01*
X25465Y23085D01*
X25401Y23002D01*
X25360Y22904D01*
X25347Y22800D01*
Y22200D01*
X25360Y22096D01*
X25401Y21998D01*
X25465Y21915D01*
X25548Y21851D01*
X25646Y21810D01*
X25750Y21797D01*
X25854Y21810D01*
X25952Y21851D01*
X26035Y21915D01*
X26099Y21998D01*
X26140Y22096D01*
X26153Y22200D01*
Y22800D01*
X26140Y22904D01*
X26099Y23002D01*
X26035Y23085D01*
X25952Y23149D01*
X25854Y23190D01*
X25750Y23203D01*
D02*
G37*
G36*
X27000D02*
X26896Y23190D01*
X26798Y23149D01*
X26715Y23085D01*
X26651Y23002D01*
X26610Y22904D01*
X26597Y22800D01*
Y22200D01*
X26610Y22096D01*
X26651Y21998D01*
X26715Y21915D01*
X26798Y21851D01*
X26896Y21810D01*
X27000Y21797D01*
X27104Y21810D01*
X27202Y21851D01*
X27285Y21915D01*
X27349Y21998D01*
X27390Y22096D01*
X27403Y22200D01*
Y22800D01*
X27390Y22904D01*
X27349Y23002D01*
X27285Y23085D01*
X27202Y23149D01*
X27104Y23190D01*
X27000Y23203D01*
D02*
G37*
G36*
X54500D02*
X54396Y23190D01*
X54298Y23149D01*
X54215Y23085D01*
X54151Y23002D01*
X54110Y22904D01*
X54097Y22800D01*
Y22200D01*
X54110Y22096D01*
X54151Y21998D01*
X54215Y21915D01*
X54298Y21851D01*
X54396Y21810D01*
X54500Y21797D01*
X54604Y21810D01*
X54702Y21851D01*
X54785Y21915D01*
X54849Y21998D01*
X54890Y22096D01*
X54903Y22200D01*
Y22800D01*
X54890Y22904D01*
X54849Y23002D01*
X54785Y23085D01*
X54702Y23149D01*
X54604Y23190D01*
X54500Y23203D01*
D02*
G37*
G36*
X34500Y22903D02*
X34396Y22890D01*
X34298Y22849D01*
X34215Y22785D01*
X34151Y22702D01*
X34110Y22604D01*
X34097Y22500D01*
X34110Y22396D01*
X34151Y22298D01*
X34215Y22215D01*
X34298Y22151D01*
X34396Y22110D01*
X34500Y22097D01*
X34604Y22110D01*
X34702Y22151D01*
X34785Y22215D01*
X34849Y22298D01*
X34890Y22396D01*
X34903Y22500D01*
X34890Y22604D01*
X34849Y22702D01*
X34785Y22785D01*
X34702Y22849D01*
X34604Y22890D01*
X34500Y22903D01*
D02*
G37*
G36*
X35500D02*
X35396Y22890D01*
X35298Y22849D01*
X35215Y22785D01*
X35151Y22702D01*
X35110Y22604D01*
X35097Y22500D01*
X35110Y22396D01*
X35151Y22298D01*
X35215Y22215D01*
X35298Y22151D01*
X35396Y22110D01*
X35500Y22097D01*
X35604Y22110D01*
X35702Y22151D01*
X35785Y22215D01*
X35849Y22298D01*
X35890Y22396D01*
X35903Y22500D01*
X35890Y22604D01*
X35849Y22702D01*
X35785Y22785D01*
X35702Y22849D01*
X35604Y22890D01*
X35500Y22903D01*
D02*
G37*
G36*
X55750Y23203D02*
X55646Y23190D01*
X55548Y23149D01*
X55465Y23085D01*
X55401Y23002D01*
X55360Y22904D01*
X55347Y22800D01*
Y22200D01*
X55360Y22096D01*
X55401Y21998D01*
X55465Y21915D01*
X55548Y21851D01*
X55646Y21810D01*
X55750Y21797D01*
X55854Y21810D01*
X55952Y21851D01*
X56035Y21915D01*
X56099Y21998D01*
X56140Y22096D01*
X56153Y22200D01*
Y22800D01*
X56140Y22904D01*
X56099Y23002D01*
X56035Y23085D01*
X55952Y23149D01*
X55854Y23190D01*
X55750Y23203D01*
D02*
G37*
G36*
X33500Y22903D02*
X33396Y22890D01*
X33298Y22849D01*
X33215Y22785D01*
X33151Y22702D01*
X33110Y22604D01*
X33097Y22500D01*
X33110Y22396D01*
X33151Y22298D01*
X33215Y22215D01*
X33298Y22151D01*
X33396Y22110D01*
X33500Y22097D01*
X33604Y22110D01*
X33702Y22151D01*
X33785Y22215D01*
X33849Y22298D01*
X33890Y22396D01*
X33903Y22500D01*
X33890Y22604D01*
X33849Y22702D01*
X33785Y22785D01*
X33702Y22849D01*
X33604Y22890D01*
X33500Y22903D01*
D02*
G37*
G36*
X54500Y25703D02*
X54396Y25690D01*
X54298Y25649D01*
X54215Y25585D01*
X54151Y25502D01*
X54110Y25404D01*
X54097Y25300D01*
Y24700D01*
X54110Y24596D01*
X54151Y24498D01*
X54215Y24415D01*
X54298Y24351D01*
X54396Y24310D01*
X54500Y24297D01*
X54604Y24310D01*
X54702Y24351D01*
X54785Y24415D01*
X54849Y24498D01*
X54890Y24596D01*
X54903Y24700D01*
Y25300D01*
X54890Y25404D01*
X54849Y25502D01*
X54785Y25585D01*
X54702Y25649D01*
X54604Y25690D01*
X54500Y25703D01*
D02*
G37*
G36*
X55750Y28203D02*
X55646Y28190D01*
X55548Y28149D01*
X55465Y28085D01*
X55401Y28002D01*
X55360Y27904D01*
X55347Y27800D01*
Y27200D01*
X55360Y27096D01*
X55401Y26998D01*
X55465Y26915D01*
X55548Y26851D01*
X55646Y26810D01*
X55750Y26797D01*
X55854Y26810D01*
X55952Y26851D01*
X56035Y26915D01*
X56099Y26998D01*
X56140Y27096D01*
X56153Y27200D01*
Y27800D01*
X56140Y27904D01*
X56099Y28002D01*
X56035Y28085D01*
X55952Y28149D01*
X55854Y28190D01*
X55750Y28203D01*
D02*
G37*
G36*
X33500Y27903D02*
X33396Y27890D01*
X33298Y27849D01*
X33215Y27785D01*
X33151Y27702D01*
X33110Y27604D01*
X33097Y27500D01*
X33110Y27396D01*
X33151Y27298D01*
X33215Y27215D01*
X33298Y27151D01*
X33396Y27110D01*
X33500Y27097D01*
X33604Y27110D01*
X33702Y27151D01*
X33785Y27215D01*
X33849Y27298D01*
X33890Y27396D01*
X33903Y27500D01*
X33890Y27604D01*
X33849Y27702D01*
X33785Y27785D01*
X33702Y27849D01*
X33604Y27890D01*
X33500Y27903D01*
D02*
G37*
G36*
X43250Y28203D02*
X43146Y28190D01*
X43048Y28149D01*
X42965Y28085D01*
X42901Y28002D01*
X42860Y27904D01*
X42847Y27800D01*
Y27200D01*
X42860Y27096D01*
X42901Y26998D01*
X42965Y26915D01*
X43048Y26851D01*
X43146Y26810D01*
X43250Y26797D01*
X43354Y26810D01*
X43452Y26851D01*
X43535Y26915D01*
X43599Y26998D01*
X43640Y27096D01*
X43653Y27200D01*
Y27800D01*
X43640Y27904D01*
X43599Y28002D01*
X43535Y28085D01*
X43452Y28149D01*
X43354Y28190D01*
X43250Y28203D01*
D02*
G37*
G36*
X54500D02*
X54396Y28190D01*
X54298Y28149D01*
X54215Y28085D01*
X54151Y28002D01*
X54110Y27904D01*
X54097Y27800D01*
Y27200D01*
X54110Y27096D01*
X54151Y26998D01*
X54215Y26915D01*
X54298Y26851D01*
X54396Y26810D01*
X54500Y26797D01*
X54604Y26810D01*
X54702Y26851D01*
X54785Y26915D01*
X54849Y26998D01*
X54890Y27096D01*
X54903Y27200D01*
Y27800D01*
X54890Y27904D01*
X54849Y28002D01*
X54785Y28085D01*
X54702Y28149D01*
X54604Y28190D01*
X54500Y28203D01*
D02*
G37*
G36*
X34500Y27903D02*
X34396Y27890D01*
X34298Y27849D01*
X34215Y27785D01*
X34151Y27702D01*
X34110Y27604D01*
X34097Y27500D01*
X34110Y27396D01*
X34151Y27298D01*
X34215Y27215D01*
X34298Y27151D01*
X34396Y27110D01*
X34500Y27097D01*
X34604Y27110D01*
X34702Y27151D01*
X34785Y27215D01*
X34849Y27298D01*
X34890Y27396D01*
X34903Y27500D01*
X34890Y27604D01*
X34849Y27702D01*
X34785Y27785D01*
X34702Y27849D01*
X34604Y27890D01*
X34500Y27903D01*
D02*
G37*
G36*
X39500Y28203D02*
X39396Y28190D01*
X39298Y28149D01*
X39215Y28085D01*
X39151Y28002D01*
X39110Y27904D01*
X39097Y27800D01*
Y27653D01*
X38653D01*
Y27800D01*
X38640Y27904D01*
X38599Y28002D01*
X38535Y28085D01*
X38452Y28149D01*
X38354Y28190D01*
X38250Y28203D01*
X38146Y28190D01*
X38048Y28149D01*
X37965Y28085D01*
X37901Y28002D01*
X37860Y27904D01*
X37847Y27800D01*
Y27200D01*
X37860Y27096D01*
X37901Y26998D01*
X37965Y26915D01*
X38048Y26851D01*
X38146Y26810D01*
X38250Y26797D01*
X38354Y26810D01*
X38452Y26851D01*
X38535Y26915D01*
X38599Y26998D01*
X38640Y27096D01*
X38653Y27200D01*
Y27347D01*
X39097D01*
Y27200D01*
X39110Y27096D01*
X39151Y26998D01*
X39215Y26915D01*
X39298Y26851D01*
X39396Y26810D01*
X39500Y26797D01*
X39604Y26810D01*
X39702Y26851D01*
X39785Y26915D01*
X39849Y26998D01*
X39890Y27096D01*
X39903Y27200D01*
Y27800D01*
X39890Y27904D01*
X39849Y28002D01*
X39785Y28085D01*
X39702Y28149D01*
X39604Y28190D01*
X39500Y28203D01*
D02*
G37*
G36*
X52000D02*
X51896Y28190D01*
X51798Y28149D01*
X51715Y28085D01*
X51651Y28002D01*
X51610Y27904D01*
X51597Y27800D01*
Y27653D01*
X51153D01*
Y27800D01*
X51140Y27904D01*
X51099Y28002D01*
X51035Y28085D01*
X50952Y28149D01*
X50854Y28190D01*
X50750Y28203D01*
X50646Y28190D01*
X50548Y28149D01*
X50465Y28085D01*
X50401Y28002D01*
X50360Y27904D01*
X50347Y27800D01*
Y27200D01*
X50360Y27096D01*
X50401Y26998D01*
X50465Y26915D01*
X50548Y26851D01*
X50646Y26810D01*
X50750Y26797D01*
X50854Y26810D01*
X50952Y26851D01*
X51035Y26915D01*
X51099Y26998D01*
X51140Y27096D01*
X51153Y27200D01*
Y27347D01*
X51597D01*
Y27200D01*
X51610Y27096D01*
X51651Y26998D01*
X51715Y26915D01*
X51798Y26851D01*
X51896Y26810D01*
X52000Y26797D01*
X52104Y26810D01*
X52202Y26851D01*
X52285Y26915D01*
X52349Y26998D01*
X52390Y27096D01*
X52403Y27200D01*
Y27800D01*
X52390Y27904D01*
X52349Y28002D01*
X52285Y28085D01*
X52202Y28149D01*
X52104Y28190D01*
X52000Y28203D01*
D02*
G37*
G36*
X35500Y27903D02*
X35396Y27890D01*
X35298Y27849D01*
X35215Y27785D01*
X35151Y27702D01*
X35110Y27604D01*
X35097Y27500D01*
X35110Y27396D01*
X35151Y27298D01*
X35215Y27215D01*
X35298Y27151D01*
X35396Y27110D01*
X35500Y27097D01*
X35604Y27110D01*
X35702Y27151D01*
X35785Y27215D01*
X35849Y27298D01*
X35890Y27396D01*
X35903Y27500D01*
X35890Y27604D01*
X35849Y27702D01*
X35785Y27785D01*
X35702Y27849D01*
X35604Y27890D01*
X35500Y27903D01*
D02*
G37*
G36*
X30750Y28203D02*
X30646Y28190D01*
X30548Y28149D01*
X30465Y28085D01*
X30401Y28002D01*
X30360Y27904D01*
X30347Y27800D01*
Y27653D01*
X29903D01*
Y27800D01*
X29890Y27904D01*
X29849Y28002D01*
X29785Y28085D01*
X29702Y28149D01*
X29604Y28190D01*
X29500Y28203D01*
X29396Y28190D01*
X29298Y28149D01*
X29215Y28085D01*
X29151Y28002D01*
X29110Y27904D01*
X29097Y27800D01*
Y27200D01*
X29110Y27096D01*
X29151Y26998D01*
X29215Y26915D01*
X29298Y26851D01*
X29396Y26810D01*
X29500Y26797D01*
X29604Y26810D01*
X29702Y26851D01*
X29785Y26915D01*
X29849Y26998D01*
X29890Y27096D01*
X29903Y27200D01*
Y27347D01*
X30347D01*
Y27200D01*
X30360Y27096D01*
X30401Y26998D01*
X30465Y26915D01*
X30548Y26851D01*
X30646Y26810D01*
X30750Y26797D01*
X30854Y26810D01*
X30952Y26851D01*
X31035Y26915D01*
X31099Y26998D01*
X31140Y27096D01*
X31153Y27200D01*
Y27800D01*
X31140Y27904D01*
X31099Y28002D01*
X31035Y28085D01*
X30952Y28149D01*
X30854Y28190D01*
X30750Y28203D01*
D02*
G37*
G36*
X42000D02*
X41896Y28190D01*
X41798Y28149D01*
X41715Y28085D01*
X41651Y28002D01*
X41610Y27904D01*
X41597Y27800D01*
Y27200D01*
X41610Y27096D01*
X41651Y26998D01*
X41715Y26915D01*
X41798Y26851D01*
X41896Y26810D01*
X42000Y26797D01*
X42104Y26810D01*
X42202Y26851D01*
X42285Y26915D01*
X42349Y26998D01*
X42390Y27096D01*
X42403Y27200D01*
Y27800D01*
X42390Y27904D01*
X42349Y28002D01*
X42285Y28085D01*
X42202Y28149D01*
X42104Y28190D01*
X42000Y28203D01*
D02*
G37*
G36*
X34500Y25403D02*
X34396Y25390D01*
X34298Y25349D01*
X34215Y25285D01*
X34151Y25202D01*
X34110Y25104D01*
X34097Y25000D01*
X34110Y24896D01*
X34151Y24798D01*
X34215Y24715D01*
X34298Y24651D01*
X34396Y24610D01*
X34500Y24597D01*
X34604Y24610D01*
X34702Y24651D01*
X34785Y24715D01*
X34849Y24798D01*
X34890Y24896D01*
X34903Y25000D01*
X34890Y25104D01*
X34849Y25202D01*
X34785Y25285D01*
X34702Y25349D01*
X34604Y25390D01*
X34500Y25403D01*
D02*
G37*
G36*
X35500D02*
X35396Y25390D01*
X35298Y25349D01*
X35215Y25285D01*
X35151Y25202D01*
X35110Y25104D01*
X35097Y25000D01*
X35110Y24896D01*
X35151Y24798D01*
X35215Y24715D01*
X35298Y24651D01*
X35396Y24610D01*
X35500Y24597D01*
X35604Y24610D01*
X35702Y24651D01*
X35785Y24715D01*
X35849Y24798D01*
X35890Y24896D01*
X35903Y25000D01*
X35890Y25104D01*
X35849Y25202D01*
X35785Y25285D01*
X35702Y25349D01*
X35604Y25390D01*
X35500Y25403D01*
D02*
G37*
G36*
X55750Y25703D02*
X55646Y25690D01*
X55548Y25649D01*
X55465Y25585D01*
X55401Y25502D01*
X55360Y25404D01*
X55347Y25300D01*
Y24700D01*
X55360Y24596D01*
X55401Y24498D01*
X55465Y24415D01*
X55548Y24351D01*
X55646Y24310D01*
X55750Y24297D01*
X55854Y24310D01*
X55952Y24351D01*
X56035Y24415D01*
X56099Y24498D01*
X56140Y24596D01*
X56153Y24700D01*
Y25300D01*
X56140Y25404D01*
X56099Y25502D01*
X56035Y25585D01*
X55952Y25649D01*
X55854Y25690D01*
X55750Y25703D01*
D02*
G37*
G36*
X33500Y25403D02*
X33396Y25390D01*
X33298Y25349D01*
X33215Y25285D01*
X33151Y25202D01*
X33110Y25104D01*
X33097Y25000D01*
X33110Y24896D01*
X33151Y24798D01*
X33215Y24715D01*
X33298Y24651D01*
X33396Y24610D01*
X33500Y24597D01*
X33604Y24610D01*
X33702Y24651D01*
X33785Y24715D01*
X33849Y24798D01*
X33890Y24896D01*
X33903Y25000D01*
X33890Y25104D01*
X33849Y25202D01*
X33785Y25285D01*
X33702Y25349D01*
X33604Y25390D01*
X33500Y25403D01*
D02*
G37*
G36*
X30750Y25703D02*
X30646Y25690D01*
X30548Y25649D01*
X30465Y25585D01*
X30401Y25502D01*
X30360Y25404D01*
X30347Y25300D01*
Y25153D01*
X29903D01*
Y25300D01*
X29890Y25404D01*
X29849Y25502D01*
X29785Y25585D01*
X29702Y25649D01*
X29604Y25690D01*
X29500Y25703D01*
X29396Y25690D01*
X29298Y25649D01*
X29215Y25585D01*
X29151Y25502D01*
X29110Y25404D01*
X29097Y25300D01*
Y24700D01*
X29110Y24596D01*
X29151Y24498D01*
X29215Y24415D01*
X29298Y24351D01*
X29396Y24310D01*
X29500Y24297D01*
X29604Y24310D01*
X29702Y24351D01*
X29785Y24415D01*
X29849Y24498D01*
X29890Y24596D01*
X29903Y24700D01*
Y24847D01*
X30347D01*
Y24700D01*
X30360Y24596D01*
X30401Y24498D01*
X30465Y24415D01*
X30548Y24351D01*
X30646Y24310D01*
X30750Y24297D01*
X30854Y24310D01*
X30952Y24351D01*
X31035Y24415D01*
X31099Y24498D01*
X31140Y24596D01*
X31153Y24700D01*
Y25300D01*
X31140Y25404D01*
X31099Y25502D01*
X31035Y25585D01*
X30952Y25649D01*
X30854Y25690D01*
X30750Y25703D01*
D02*
G37*
G36*
X25750Y28203D02*
X25646Y28190D01*
X25548Y28149D01*
X25465Y28085D01*
X25401Y28002D01*
X25360Y27904D01*
X25347Y27800D01*
Y27200D01*
X25360Y27096D01*
X25401Y26998D01*
X25465Y26915D01*
X25548Y26851D01*
X25646Y26810D01*
X25750Y26797D01*
X25854Y26810D01*
X25952Y26851D01*
X26035Y26915D01*
X26099Y26998D01*
X26140Y27096D01*
X26153Y27200D01*
Y27800D01*
X26140Y27904D01*
X26099Y28002D01*
X26035Y28085D01*
X25952Y28149D01*
X25854Y28190D01*
X25750Y28203D01*
D02*
G37*
G36*
X27000D02*
X26896Y28190D01*
X26798Y28149D01*
X26715Y28085D01*
X26651Y28002D01*
X26610Y27904D01*
X26597Y27800D01*
Y27200D01*
X26610Y27096D01*
X26651Y26998D01*
X26715Y26915D01*
X26798Y26851D01*
X26896Y26810D01*
X27000Y26797D01*
X27104Y26810D01*
X27202Y26851D01*
X27285Y26915D01*
X27349Y26998D01*
X27390Y27096D01*
X27403Y27200D01*
Y27800D01*
X27390Y27904D01*
X27349Y28002D01*
X27285Y28085D01*
X27202Y28149D01*
X27104Y28190D01*
X27000Y28203D01*
D02*
G37*
G36*
X39500Y25703D02*
X39396Y25690D01*
X39298Y25649D01*
X39215Y25585D01*
X39151Y25502D01*
X39110Y25404D01*
X39097Y25300D01*
Y25153D01*
X38653D01*
Y25300D01*
X38640Y25404D01*
X38599Y25502D01*
X38535Y25585D01*
X38452Y25649D01*
X38354Y25690D01*
X38250Y25703D01*
X38146Y25690D01*
X38048Y25649D01*
X37965Y25585D01*
X37901Y25502D01*
X37860Y25404D01*
X37847Y25300D01*
Y24700D01*
X37860Y24596D01*
X37901Y24498D01*
X37965Y24415D01*
X38048Y24351D01*
X38146Y24310D01*
X38250Y24297D01*
X38354Y24310D01*
X38452Y24351D01*
X38535Y24415D01*
X38599Y24498D01*
X38640Y24596D01*
X38653Y24700D01*
Y24847D01*
X39097D01*
Y24700D01*
X39110Y24596D01*
X39151Y24498D01*
X39215Y24415D01*
X39298Y24351D01*
X39396Y24310D01*
X39500Y24297D01*
X39604Y24310D01*
X39702Y24351D01*
X39785Y24415D01*
X39849Y24498D01*
X39890Y24596D01*
X39903Y24700D01*
Y25300D01*
X39890Y25404D01*
X39849Y25502D01*
X39785Y25585D01*
X39702Y25649D01*
X39604Y25690D01*
X39500Y25703D01*
D02*
G37*
G36*
X52000D02*
X51896Y25690D01*
X51798Y25649D01*
X51715Y25585D01*
X51651Y25502D01*
X51610Y25404D01*
X51597Y25300D01*
Y25153D01*
X51153D01*
Y25300D01*
X51140Y25404D01*
X51099Y25502D01*
X51035Y25585D01*
X50952Y25649D01*
X50854Y25690D01*
X50750Y25703D01*
X50646Y25690D01*
X50548Y25649D01*
X50465Y25585D01*
X50401Y25502D01*
X50360Y25404D01*
X50347Y25300D01*
Y24700D01*
X50360Y24596D01*
X50401Y24498D01*
X50465Y24415D01*
X50548Y24351D01*
X50646Y24310D01*
X50750Y24297D01*
X50854Y24310D01*
X50952Y24351D01*
X51035Y24415D01*
X51099Y24498D01*
X51140Y24596D01*
X51153Y24700D01*
Y24847D01*
X51597D01*
Y24700D01*
X51610Y24596D01*
X51651Y24498D01*
X51715Y24415D01*
X51798Y24351D01*
X51896Y24310D01*
X52000Y24297D01*
X52104Y24310D01*
X52202Y24351D01*
X52285Y24415D01*
X52349Y24498D01*
X52390Y24596D01*
X52403Y24700D01*
Y25300D01*
X52390Y25404D01*
X52349Y25502D01*
X52285Y25585D01*
X52202Y25649D01*
X52104Y25690D01*
X52000Y25703D01*
D02*
G37*
%LPD*%
D10*
X29500Y27500D02*
X30750D01*
X29500Y25000D02*
X30750D01*
X29500Y22500D02*
X30750D01*
X38250Y27500D02*
X39500D01*
X38250Y25000D02*
X39500D01*
X38250Y22500D02*
X39500D01*
X50750Y27500D02*
X52000D01*
X50750Y25000D02*
X52000D01*
X50750Y22500D02*
X52000D01*
D11*
Y27500D02*
D03*
X50750D02*
D03*
X54500D02*
D03*
X55750D02*
D03*
Y25000D02*
D03*
X54500D02*
D03*
X50750D02*
D03*
X52000D02*
D03*
Y22500D02*
D03*
X50750D02*
D03*
X54500D02*
D03*
X55750D02*
D03*
X43250D02*
D03*
X42000D02*
D03*
X38250D02*
D03*
X39500D02*
D03*
Y25000D02*
D03*
X38250D02*
D03*
X42000D02*
D03*
X43250D02*
D03*
Y27500D02*
D03*
X42000D02*
D03*
X38250D02*
D03*
X39500D02*
D03*
X27000D02*
D03*
X25750D02*
D03*
X29500D02*
D03*
X30750D02*
D03*
Y25000D02*
D03*
X29500D02*
D03*
X25750D02*
D03*
X27000D02*
D03*
Y22500D02*
D03*
X25750D02*
D03*
X29500D02*
D03*
X30750D02*
D03*
D12*
X35500D02*
D03*
X33500D02*
D03*
X34500D02*
D03*
Y25000D02*
D03*
X33500D02*
D03*
X35500D02*
D03*
Y27500D02*
D03*
X33500D02*
D03*
X34500D02*
D03*
D13*
X46950Y24900D02*
D03*
X22000Y25000D02*
D03*
M02*
